<?xml version="1.0" standalone="no"?><!DOCTYPE svg PUBLIC "-//W3C//DTD SVG 1.1//EN" "http://www.w3.org/Graphics/SVG/1.1/DTD/svg11.dtd"><svg t="1540782295629" class="icon" style="" viewBox="0 0 1024 1024" version="1.1" xmlns="http://www.w3.org/2000/svg" p-id="12976" xmlns:xlink="http://www.w3.org/1999/xlink" width="200" height="200"><defs><style type="text/css"></style></defs><path d="M373.598316 156.564211a142.659368 142.659368 0 0 1 0-15.171369c0-78.039579 61.655579-141.312 137.701052-141.312 76.018526 0 137.674105 63.272421 137.674106 141.312 0.269474 5.039158 0.269474 10.105263 0 15.144421H373.598316z m355.381895 280.926315h11.075368c51.685053-6.736842 90.435368-51.819789 90.435368-105.283368S791.713684 233.606737 740.055579 226.896842h-11.048421v210.593684z m-438.272-210.189473h-11.075369C227.947789 234.037895 189.170526 279.174737 189.170526 332.611368s38.750316 98.573474 90.435369 105.310316h11.048421V227.301053zM797.103158 908.826947h-144.869053V451.395368h37.349053c9.539368 0 17.246316-7.922526 17.246316-17.677473V232.367158a17.461895 17.461895 0 0 0-17.246316-17.677474h-37.349053v-16.437895c0-7.437474-5.874526-13.473684-13.123368-13.473684H380.981895a12.961684 12.961684 0 0 0-9.269895 3.934316 13.662316 13.662316 0 0 0-3.853474 9.539368v16.006737H329.674105a17.461895 17.461895 0 0 0-17.246316 17.677474v201.350737c0 9.781895 7.733895 17.677474 17.246316 17.677474H367.023158v457.862736H222.989474c-25.950316 0-46.996211 21.611789-46.996211 48.23579s21.018947 48.235789 46.996211 48.235789h574.517894c25.977263 0 46.996211-21.611789 46.996211-48.235789s-21.018947-48.235789-46.996211-48.23579h-0.40421zM509.844211 420.217263c-46.457263 0-84.129684-38.642526-84.129685-86.339368 0-47.696842 37.672421-86.339368 84.129685-86.339369s84.129684 38.642526 84.129684 86.339369c0 22.905263-8.865684 44.867368-24.629895 61.062737-15.791158 16.168421-37.187368 25.276632-59.499789 25.276631z" fill="#333333" p-id="12977"></path></svg>